<mxfile host="app.diagrams.net" modified="2024-03-27T19:21:22.347Z" agent="Mozilla/5.0 (Windows NT 10.0; Win64; x64) AppleWebKit/537.36 (KHTML, like Gecko) Chrome/123.0.0.0 Safari/537.36" etag="yaVimsFl7G5BeQGvmLWE" version="24.2.0" type="device">
  <diagram name="Page-1" id="nJH6QCOLpfoDqpIx2mv3">
    <mxGraphModel dx="1235" dy="614" grid="1" gridSize="10" guides="1" tooltips="1" connect="1" arrows="1" fold="1" page="1" pageScale="1" pageWidth="850" pageHeight="1100" math="0" shadow="0">
      <root>
        <mxCell id="0" />
        <mxCell id="1" parent="0" />
        <mxCell id="OcXgSmBTbRq5eW18jd0P-3" value="" style="group" vertex="1" connectable="0" parent="1">
          <mxGeometry x="240" y="240" width="360" height="440" as="geometry" />
        </mxCell>
        <mxCell id="6QGiWb-6G0N20bu_WWN0-31" style="edgeStyle=orthogonalEdgeStyle;rounded=0;orthogonalLoop=1;jettySize=auto;html=1;endArrow=none;endFill=0;" parent="OcXgSmBTbRq5eW18jd0P-3" source="6QGiWb-6G0N20bu_WWN0-12" target="6QGiWb-6G0N20bu_WWN0-14" edge="1">
          <mxGeometry relative="1" as="geometry" />
        </mxCell>
        <mxCell id="6QGiWb-6G0N20bu_WWN0-46" value="1..1" style="edgeLabel;html=1;align=center;verticalAlign=middle;resizable=0;points=[];" parent="6QGiWb-6G0N20bu_WWN0-31" vertex="1" connectable="0">
          <mxGeometry x="-0.0397" y="-1" relative="1" as="geometry">
            <mxPoint x="1" y="-24" as="offset" />
          </mxGeometry>
        </mxCell>
        <mxCell id="6QGiWb-6G0N20bu_WWN0-40" style="edgeStyle=orthogonalEdgeStyle;rounded=0;orthogonalLoop=1;jettySize=auto;html=1;endArrow=none;endFill=0;" parent="OcXgSmBTbRq5eW18jd0P-3" source="6QGiWb-6G0N20bu_WWN0-12" target="6QGiWb-6G0N20bu_WWN0-17" edge="1">
          <mxGeometry relative="1" as="geometry">
            <Array as="points">
              <mxPoint x="100" y="80" />
              <mxPoint x="100" y="15" />
            </Array>
          </mxGeometry>
        </mxCell>
        <mxCell id="6QGiWb-6G0N20bu_WWN0-41" style="edgeStyle=orthogonalEdgeStyle;rounded=0;orthogonalLoop=1;jettySize=auto;html=1;endArrow=none;endFill=0;" parent="OcXgSmBTbRq5eW18jd0P-3" source="6QGiWb-6G0N20bu_WWN0-12" target="6QGiWb-6G0N20bu_WWN0-19" edge="1">
          <mxGeometry relative="1" as="geometry">
            <Array as="points">
              <mxPoint x="100" y="80" />
              <mxPoint x="100" y="55" />
            </Array>
          </mxGeometry>
        </mxCell>
        <mxCell id="6QGiWb-6G0N20bu_WWN0-42" style="edgeStyle=orthogonalEdgeStyle;rounded=0;orthogonalLoop=1;jettySize=auto;html=1;endArrow=none;endFill=0;" parent="OcXgSmBTbRq5eW18jd0P-3" source="6QGiWb-6G0N20bu_WWN0-12" target="6QGiWb-6G0N20bu_WWN0-16" edge="1">
          <mxGeometry relative="1" as="geometry">
            <Array as="points">
              <mxPoint x="100" y="80" />
              <mxPoint x="100" y="95" />
            </Array>
          </mxGeometry>
        </mxCell>
        <mxCell id="6QGiWb-6G0N20bu_WWN0-43" style="edgeStyle=orthogonalEdgeStyle;rounded=0;orthogonalLoop=1;jettySize=auto;html=1;endArrow=none;endFill=0;" parent="OcXgSmBTbRq5eW18jd0P-3" source="6QGiWb-6G0N20bu_WWN0-12" target="6QGiWb-6G0N20bu_WWN0-18" edge="1">
          <mxGeometry relative="1" as="geometry">
            <Array as="points">
              <mxPoint x="100" y="80" />
              <mxPoint x="100" y="135" />
            </Array>
          </mxGeometry>
        </mxCell>
        <mxCell id="6QGiWb-6G0N20bu_WWN0-12" value="Area" style="rounded=1;whiteSpace=wrap;html=1;" parent="OcXgSmBTbRq5eW18jd0P-3" vertex="1">
          <mxGeometry x="120" y="50" width="120" height="60" as="geometry" />
        </mxCell>
        <mxCell id="6QGiWb-6G0N20bu_WWN0-33" style="edgeStyle=orthogonalEdgeStyle;rounded=0;orthogonalLoop=1;jettySize=auto;html=1;endArrow=none;endFill=0;" parent="OcXgSmBTbRq5eW18jd0P-3" source="6QGiWb-6G0N20bu_WWN0-13" target="6QGiWb-6G0N20bu_WWN0-32" edge="1">
          <mxGeometry relative="1" as="geometry">
            <Array as="points">
              <mxPoint x="360" y="330" />
              <mxPoint x="360" y="415" />
            </Array>
          </mxGeometry>
        </mxCell>
        <mxCell id="6QGiWb-6G0N20bu_WWN0-47" value="0..1" style="edgeLabel;html=1;align=center;verticalAlign=middle;resizable=0;points=[];" parent="6QGiWb-6G0N20bu_WWN0-33" vertex="1" connectable="0">
          <mxGeometry x="0.1988" y="-1" relative="1" as="geometry">
            <mxPoint x="-19" y="51" as="offset" />
          </mxGeometry>
        </mxCell>
        <mxCell id="6QGiWb-6G0N20bu_WWN0-35" style="edgeStyle=orthogonalEdgeStyle;rounded=0;orthogonalLoop=1;jettySize=auto;html=1;endArrow=none;endFill=0;" parent="OcXgSmBTbRq5eW18jd0P-3" source="6QGiWb-6G0N20bu_WWN0-13" target="6QGiWb-6G0N20bu_WWN0-25" edge="1">
          <mxGeometry relative="1" as="geometry">
            <Array as="points">
              <mxPoint x="100" y="330" />
              <mxPoint x="100" y="275" />
            </Array>
          </mxGeometry>
        </mxCell>
        <mxCell id="6QGiWb-6G0N20bu_WWN0-36" style="edgeStyle=orthogonalEdgeStyle;rounded=0;orthogonalLoop=1;jettySize=auto;html=1;endArrow=none;endFill=0;" parent="OcXgSmBTbRq5eW18jd0P-3" source="6QGiWb-6G0N20bu_WWN0-13" target="6QGiWb-6G0N20bu_WWN0-27" edge="1">
          <mxGeometry relative="1" as="geometry">
            <Array as="points">
              <mxPoint x="100" y="330" />
              <mxPoint x="100" y="315" />
            </Array>
          </mxGeometry>
        </mxCell>
        <mxCell id="6QGiWb-6G0N20bu_WWN0-37" style="edgeStyle=orthogonalEdgeStyle;rounded=0;orthogonalLoop=1;jettySize=auto;html=1;endArrow=none;endFill=0;" parent="OcXgSmBTbRq5eW18jd0P-3" source="6QGiWb-6G0N20bu_WWN0-13" target="6QGiWb-6G0N20bu_WWN0-24" edge="1">
          <mxGeometry relative="1" as="geometry">
            <Array as="points">
              <mxPoint x="100" y="330" />
              <mxPoint x="100" y="355" />
            </Array>
          </mxGeometry>
        </mxCell>
        <mxCell id="6QGiWb-6G0N20bu_WWN0-38" style="edgeStyle=orthogonalEdgeStyle;rounded=0;orthogonalLoop=1;jettySize=auto;html=1;endArrow=none;endFill=0;" parent="OcXgSmBTbRq5eW18jd0P-3" source="6QGiWb-6G0N20bu_WWN0-13" target="6QGiWb-6G0N20bu_WWN0-26" edge="1">
          <mxGeometry relative="1" as="geometry">
            <Array as="points">
              <mxPoint x="100" y="330" />
              <mxPoint x="100" y="395" />
            </Array>
          </mxGeometry>
        </mxCell>
        <mxCell id="6QGiWb-6G0N20bu_WWN0-13" value="Process" style="rounded=1;whiteSpace=wrap;html=1;" parent="OcXgSmBTbRq5eW18jd0P-3" vertex="1">
          <mxGeometry x="120" y="300" width="120" height="60" as="geometry" />
        </mxCell>
        <mxCell id="6QGiWb-6G0N20bu_WWN0-30" style="edgeStyle=orthogonalEdgeStyle;rounded=0;orthogonalLoop=1;jettySize=auto;html=1;endArrow=none;endFill=0;" parent="OcXgSmBTbRq5eW18jd0P-3" source="6QGiWb-6G0N20bu_WWN0-14" target="6QGiWb-6G0N20bu_WWN0-13" edge="1">
          <mxGeometry relative="1" as="geometry" />
        </mxCell>
        <mxCell id="6QGiWb-6G0N20bu_WWN0-45" value="0..n" style="edgeLabel;html=1;align=center;verticalAlign=middle;resizable=0;points=[];" parent="6QGiWb-6G0N20bu_WWN0-30" vertex="1" connectable="0">
          <mxGeometry x="0.746" relative="1" as="geometry">
            <mxPoint y="-1" as="offset" />
          </mxGeometry>
        </mxCell>
        <mxCell id="6QGiWb-6G0N20bu_WWN0-14" value="contains" style="rhombus;whiteSpace=wrap;html=1;" parent="OcXgSmBTbRq5eW18jd0P-3" vertex="1">
          <mxGeometry x="125" y="180" width="110" height="50" as="geometry" />
        </mxCell>
        <mxCell id="6QGiWb-6G0N20bu_WWN0-28" value="" style="group" parent="OcXgSmBTbRq5eW18jd0P-3" vertex="1" connectable="0">
          <mxGeometry y="260" width="70" height="150" as="geometry" />
        </mxCell>
        <mxCell id="6QGiWb-6G0N20bu_WWN0-24" value="updatedAt" style="ellipse;whiteSpace=wrap;html=1;" parent="6QGiWb-6G0N20bu_WWN0-28" vertex="1">
          <mxGeometry y="80" width="70" height="30" as="geometry" />
        </mxCell>
        <mxCell id="6QGiWb-6G0N20bu_WWN0-25" value="id" style="ellipse;whiteSpace=wrap;html=1;" parent="6QGiWb-6G0N20bu_WWN0-28" vertex="1">
          <mxGeometry width="70" height="30" as="geometry" />
        </mxCell>
        <mxCell id="6QGiWb-6G0N20bu_WWN0-26" value="toolLink" style="ellipse;whiteSpace=wrap;html=1;" parent="6QGiWb-6G0N20bu_WWN0-28" vertex="1">
          <mxGeometry y="120" width="70" height="30" as="geometry" />
        </mxCell>
        <mxCell id="6QGiWb-6G0N20bu_WWN0-27" value="createdAt" style="ellipse;whiteSpace=wrap;html=1;" parent="6QGiWb-6G0N20bu_WWN0-28" vertex="1">
          <mxGeometry y="40" width="70" height="30" as="geometry" />
        </mxCell>
        <mxCell id="6QGiWb-6G0N20bu_WWN0-29" value="" style="group" parent="OcXgSmBTbRq5eW18jd0P-3" vertex="1" connectable="0">
          <mxGeometry width="70" height="150" as="geometry" />
        </mxCell>
        <mxCell id="6QGiWb-6G0N20bu_WWN0-16" value="updatedAt" style="ellipse;whiteSpace=wrap;html=1;" parent="6QGiWb-6G0N20bu_WWN0-29" vertex="1">
          <mxGeometry y="80" width="70" height="30" as="geometry" />
        </mxCell>
        <mxCell id="6QGiWb-6G0N20bu_WWN0-17" value="id" style="ellipse;whiteSpace=wrap;html=1;" parent="6QGiWb-6G0N20bu_WWN0-29" vertex="1">
          <mxGeometry width="70" height="30" as="geometry" />
        </mxCell>
        <mxCell id="6QGiWb-6G0N20bu_WWN0-18" value="title" style="ellipse;whiteSpace=wrap;html=1;" parent="6QGiWb-6G0N20bu_WWN0-29" vertex="1">
          <mxGeometry y="120" width="70" height="30" as="geometry" />
        </mxCell>
        <mxCell id="6QGiWb-6G0N20bu_WWN0-19" value="createdAt" style="ellipse;whiteSpace=wrap;html=1;" parent="6QGiWb-6G0N20bu_WWN0-29" vertex="1">
          <mxGeometry y="40" width="70" height="30" as="geometry" />
        </mxCell>
        <mxCell id="6QGiWb-6G0N20bu_WWN0-34" style="edgeStyle=orthogonalEdgeStyle;rounded=0;orthogonalLoop=1;jettySize=auto;html=1;endArrow=none;endFill=0;" parent="OcXgSmBTbRq5eW18jd0P-3" source="6QGiWb-6G0N20bu_WWN0-32" target="6QGiWb-6G0N20bu_WWN0-13" edge="1">
          <mxGeometry relative="1" as="geometry">
            <Array as="points">
              <mxPoint x="180" y="415" />
            </Array>
          </mxGeometry>
        </mxCell>
        <mxCell id="6QGiWb-6G0N20bu_WWN0-48" value="0..n" style="edgeLabel;html=1;align=center;verticalAlign=middle;resizable=0;points=[];" parent="6QGiWb-6G0N20bu_WWN0-34" vertex="1" connectable="0">
          <mxGeometry x="0.0994" y="1" relative="1" as="geometry">
            <mxPoint x="31" as="offset" />
          </mxGeometry>
        </mxCell>
        <mxCell id="OcXgSmBTbRq5eW18jd0P-1" value="subprocess" style="edgeLabel;html=1;align=center;verticalAlign=middle;resizable=0;points=[];" vertex="1" connectable="0" parent="6QGiWb-6G0N20bu_WWN0-34">
          <mxGeometry x="-0.552" relative="1" as="geometry">
            <mxPoint y="15" as="offset" />
          </mxGeometry>
        </mxCell>
        <mxCell id="OcXgSmBTbRq5eW18jd0P-2" value="parent process" style="edgeLabel;html=1;align=center;verticalAlign=middle;resizable=0;points=[];" vertex="1" connectable="0" parent="6QGiWb-6G0N20bu_WWN0-34">
          <mxGeometry x="-0.552" relative="1" as="geometry">
            <mxPoint x="161" y="15" as="offset" />
          </mxGeometry>
        </mxCell>
        <mxCell id="6QGiWb-6G0N20bu_WWN0-32" value="contains" style="rhombus;whiteSpace=wrap;html=1;" parent="OcXgSmBTbRq5eW18jd0P-3" vertex="1">
          <mxGeometry x="220" y="390" width="110" height="50" as="geometry" />
        </mxCell>
      </root>
    </mxGraphModel>
  </diagram>
</mxfile>
